<svg width="176" height="56" viewBox="0 0 176 56" fill="none" xmlns="http://www.w3.org/2000/svg">
<rect width="42" height="56" fill="#FBB731"/>
<path fill-rule="evenodd" clip-rule="evenodd" d="M40.5 7H43.5C54.2644 7.01239 62.9876 15.7356 63 26.5C63 27.3284 62.3284 28 61.5 28H22.5C21.6716 28 21 27.3284 21 26.5C21.0124 15.7356 29.7356 7.01239 40.5 7ZM40.4999 9.99996C31.9723 10.0102 24.8533 16.5086 24.0675 25H59.9324C59.1467 16.5085 52.0277 10.0102 43.5 9.99996H40.4999Z" fill="#443737"/>
<path fill-rule="evenodd" clip-rule="evenodd" d="M55.5 37.1084H61.5001C62.3285 37.1084 63.0001 37.7739 63 38.5949V41.5677C62.9951 45.6704 59.6401 48.9951 55.5 49H28.5C24.3599 48.9951 21.0049 45.6704 21 41.5677V38.5949C21 37.7739 21.6716 37.1084 22.5 37.1084H43.4999C43.8245 37.1084 44.1403 37.2127 44.3999 37.4057L49.5 41.1961L54.6 37.4057C54.8596 37.2127 55.1754 37.1084 55.5 37.1084ZM55.5 46.0271C57.9853 46.0271 60 44.0306 60 41.5677V40.0813H55.9995L50.4 44.2434C49.8667 44.6397 49.1333 44.6397 48.6 44.2434L43.0005 40.0813H24V41.5677C24 44.0306 26.0147 46.0271 28.5 46.0271H55.5Z" fill="#443737"/>
<path d="M61.5 31.0361H22.5C21.6716 31.0361 21 31.7158 21 32.5542C21 33.3925 21.6716 34.0723 22.5 34.0723H61.5C62.3284 34.0723 63 33.3926 63 32.5542C63 31.7157 62.3284 31.0361 61.5 31.0361Z" fill="#443737"/>
<path d="M34.4096 15.8555C33.5712 15.8555 32.8916 16.5351 32.8916 17.3735V18.8916C32.8916 19.73 33.5712 20.4097 34.4096 20.4097C35.2481 20.4097 35.9277 19.73 35.9277 18.8916V17.3735C35.9277 16.5351 35.2481 15.8555 34.4096 15.8555Z" fill="#443737"/>
<path d="M42 15.8555C41.1616 15.8555 40.4819 16.5351 40.4819 17.3735V18.8916C40.4819 19.73 41.1616 20.4097 42 20.4097C42.8384 20.4097 43.5181 19.7299 43.5181 18.8915V17.3735C43.5181 16.5351 42.8384 15.8555 42 15.8555Z" fill="#443737"/>
<path d="M49.5904 15.8555C48.7519 15.8555 48.0723 16.5351 48.0723 17.3735V18.8916C48.0723 19.73 48.7519 20.4097 49.5904 20.4097C50.4288 20.4097 51.1084 19.73 51.1084 18.8916V17.3735C51.1084 16.5351 50.4287 15.8555 49.5904 15.8555Z" fill="#443737"/>
<path d="M75 17.184V0.263999H82.752C84.56 0.263999 85.952 0.656 86.928 1.44C87.92 2.224 88.416 3.296 88.416 4.656C88.416 5.552 88.192 6.328 87.744 6.984C87.296 7.624 86.672 8.104 85.872 8.424C86.832 8.696 87.568 9.176 88.08 9.864C88.608 10.552 88.872 11.4 88.872 12.408C88.872 13.912 88.344 15.088 87.288 15.936C86.248 16.768 84.824 17.184 83.016 17.184H75ZM78.552 7.224H82.104C83.928 7.224 84.84 6.52 84.84 5.112C84.84 3.72 83.928 3.024 82.104 3.024H78.552V7.224ZM78.552 14.424H82.512C83.472 14.424 84.176 14.24 84.624 13.872C85.072 13.504 85.296 12.944 85.296 12.192C85.296 11.456 85.072 10.904 84.624 10.536C84.176 10.168 83.472 9.984 82.512 9.984H78.552V14.424Z" fill="#443737"/>
<path d="M98.9355 17.448C96.5355 17.448 94.7035 16.832 93.4395 15.6C92.1915 14.368 91.5675 12.536 91.5675 10.104V0.263999H95.2875V10.128C95.2875 11.504 95.5995 12.544 96.2235 13.248C96.8475 13.936 97.7515 14.28 98.9355 14.28C101.351 14.28 102.559 12.896 102.559 10.128V0.263999H106.232V10.104C106.232 12.536 105.616 14.368 104.384 15.6C103.152 16.832 101.335 17.448 98.9355 17.448Z" fill="#443737"/>
<path d="M109.523 17.184V0.263999H117.251C119.139 0.263999 120.595 0.72 121.619 1.632C122.643 2.544 123.155 3.816 123.155 5.448C123.155 6.712 122.827 7.768 122.171 8.616C121.531 9.448 120.611 10.016 119.411 10.32C120.259 10.576 120.955 11.192 121.499 12.168L124.235 17.184H120.131L117.203 11.784C116.963 11.352 116.667 11.056 116.315 10.896C115.963 10.72 115.547 10.632 115.067 10.632H113.243V17.184H109.523ZM113.243 7.944H116.579C118.579 7.944 119.579 7.144 119.579 5.544C119.579 3.96 118.579 3.168 116.579 3.168H113.243V7.944Z" fill="#443737"/>
<path d="M134.493 17.448C132.589 17.448 130.973 17.088 129.645 16.368C128.333 15.648 127.333 14.64 126.645 13.344C125.957 12.048 125.613 10.528 125.613 8.784C125.613 6.992 125.965 5.44 126.669 4.128C127.389 2.816 128.421 1.8 129.765 1.08C131.109 0.36 132.725 0 134.613 0C135.797 0 136.917 0.168 137.973 0.503999C139.045 0.84 139.917 1.288 140.589 1.848L139.389 4.752C138.653 4.208 137.901 3.824 137.133 3.6C136.365 3.36 135.533 3.24 134.637 3.24C132.925 3.24 131.637 3.72 130.773 4.68C129.925 5.624 129.501 6.992 129.501 8.784C129.501 10.592 129.933 11.96 130.797 12.888C131.677 13.816 132.973 14.28 134.685 14.28C135.597 14.28 136.557 14.136 137.565 13.848V10.536H133.917V7.848H140.637V16.152C139.805 16.568 138.845 16.888 137.757 17.112C136.669 17.336 135.581 17.448 134.493 17.448Z" fill="#443737"/>
<path d="M151.778 17.448C150.114 17.448 148.65 17.088 147.386 16.368C146.138 15.632 145.162 14.616 144.458 13.32C143.77 12.008 143.426 10.472 143.426 8.712C143.426 6.952 143.77 5.424 144.458 4.128C145.162 2.816 146.138 1.8 147.386 1.08C148.634 0.36 150.098 0 151.778 0C153.458 0 154.922 0.36 156.17 1.08C157.434 1.8 158.41 2.816 159.098 4.128C159.802 5.424 160.154 6.944 160.154 8.688C160.154 10.448 159.802 11.984 159.098 13.296C158.41 14.608 157.434 15.632 156.17 16.368C154.922 17.088 153.458 17.448 151.778 17.448ZM151.778 14.28C153.186 14.28 154.282 13.792 155.066 12.816C155.866 11.824 156.266 10.456 156.266 8.712C156.266 6.952 155.874 5.592 155.09 4.632C154.306 3.656 153.202 3.168 151.778 3.168C150.386 3.168 149.29 3.656 148.49 4.632C147.706 5.592 147.314 6.952 147.314 8.712C147.314 10.456 147.706 11.824 148.49 12.816C149.29 13.792 150.386 14.28 151.778 14.28Z" fill="#443737"/>
<path d="M169.079 17.448C167.751 17.448 166.495 17.28 165.311 16.944C164.143 16.608 163.167 16.152 162.383 15.576L163.463 12.648C164.215 13.176 165.071 13.592 166.031 13.896C167.007 14.2 168.023 14.352 169.079 14.352C170.231 14.352 171.055 14.176 171.551 13.824C172.063 13.456 172.319 13 172.319 12.456C172.319 11.992 172.143 11.624 171.791 11.352C171.439 11.08 170.823 10.848 169.943 10.656L167.231 10.08C164.207 9.44 162.695 7.872 162.695 5.376C162.695 4.304 162.983 3.368 163.559 2.568C164.135 1.752 164.935 1.12 165.959 0.672C166.999 0.224 168.199 0 169.559 0C170.727 0 171.823 0.168 172.847 0.503999C173.871 0.84 174.719 1.312 175.391 1.92L174.311 4.656C174.311 4.656 171.407 3.096 169.535 3.096C168.527 3.096 167.743 3.296 167.183 3.696C166.639 4.08 166.367 4.584 166.367 5.208C166.367 5.672 166.535 6.048 166.871 6.336C167.207 6.624 167.791 6.856 168.623 7.032L171.335 7.608C174.439 8.28 175.991 9.8 175.991 12.168C175.991 13.224 175.703 14.152 175.127 14.952C174.567 15.736 173.767 16.352 172.727 16.8C171.703 17.232 170.487 17.448 169.079 17.448Z" fill="#443737"/>
</svg>
